<svg width="49" height="48" viewBox="0 0 49 48" fill="none" xmlns="http://www.w3.org/2000/svg">
<path opacity="0.2" d="M47.78 29.8062C44.5745 42.6634 31.5515 50.4874 18.6927 47.2819C5.83999 44.0765 -1.98476 31.0534 1.22149 18.1969C4.42549 5.3382 17.4477 -2.4873 30.3027 0.718197C43.1607 3.9237 50.9847 16.9482 47.7792 29.8062H47.78Z" fill="#F7931A"/>
<path fill-rule="evenodd" clip-rule="evenodd" d="M31.7281 21.2115C32.0517 19.0451 30.4022 17.8805 28.1468 17.1036L28.8784 14.1689L27.0915 13.7237L26.3792 16.581C25.9101 16.464 25.4278 16.3536 24.9485 16.2442L25.6659 13.368L23.8806 12.9229L23.1484 15.8565C22.7597 15.768 22.3781 15.6805 22.0077 15.5884L22.0098 15.5792L19.5462 14.9641L19.071 16.8721C19.071 16.8721 20.3964 17.1758 20.3684 17.1946C21.0919 17.3753 21.2232 17.854 21.2008 18.2336L20.3674 21.5768C20.4172 21.5896 20.4819 21.6079 20.5531 21.6364L20.3648 21.5896L19.1962 26.273C19.1076 26.4928 18.8832 26.8225 18.3775 26.6973C18.3953 26.7232 17.0791 26.3732 17.0791 26.3732L16.1923 28.4185L18.5174 28.998C18.7799 29.0638 19.0392 29.1315 19.2957 29.1984L19.2959 29.1984C19.4619 29.2418 19.6267 29.2847 19.7904 29.3267L19.0511 32.2955L20.8355 32.7407L21.5681 29.804C22.055 29.9363 22.5282 30.0584 22.9912 30.1733L22.2616 33.0963L24.048 33.5415L24.7872 30.5789C27.8334 31.1553 30.1244 30.9228 31.0876 28.1682C31.8645 25.9499 31.0494 24.6703 29.4467 23.8354C30.6139 23.5652 31.4931 22.7974 31.7276 21.2115H31.7281ZM27.6461 26.9349C27.139 28.9709 23.9514 28.1285 22.4943 27.7434L22.4942 27.7433C22.3637 27.7089 22.2472 27.6781 22.1476 27.6533L23.1286 23.7209C23.2503 23.7513 23.399 23.7846 23.5674 23.8224C25.0749 24.1607 28.1642 24.8539 27.6466 26.9349H27.6461ZM23.8704 21.9976C25.0862 22.322 27.7365 23.029 28.1982 21.1795C28.6702 19.2873 26.0931 18.717 24.8345 18.4385C24.693 18.4072 24.5682 18.3796 24.4662 18.3542L23.5768 21.9208C23.661 21.9418 23.7597 21.9681 23.8704 21.9976Z" fill="#F7931A"/>
</svg>
