<svg width="49" height="48" viewBox="0 0 49 48" fill="none" xmlns="http://www.w3.org/2000/svg">
<path opacity="0.2" d="M48.3697 24.0004C48.3697 37.1854 37.6814 47.874 24.4965 47.874C11.3114 47.874 0.622925 37.1854 0.622925 24.0004C0.622925 10.8154 11.3114 0.126953 24.4965 0.126953C37.6812 0.126953 48.3697 10.8154 48.3697 24.0004Z" fill="#505050"/>
<g opacity="0.8">
<path d="M24.4202 12.9229L24.2727 13.4241V27.9677L24.4202 28.1149L31.1712 24.1244L24.4202 12.9229Z" fill="white"/>
<path d="M24.4202 12.9229L17.6692 24.1244L24.4202 28.1149V21.0559V12.9229Z" fill="white"/>
<path d="M24.4201 30.3112L24.337 30.4125V35.5933L24.4201 35.836L31.1752 26.3228L24.4201 30.3112Z" fill="white"/>
<path d="M24.4202 35.836V30.3112L17.6692 26.3228L24.4202 35.836Z" fill="white"/>
<path d="M24.4202 28.1151L31.1711 24.1247L24.4202 21.0562V28.1151Z" fill="white"/>
<path d="M17.6692 24.1242L24.4201 28.1147V21.0557L17.6692 24.1242Z" fill="white"/>
</g>
</svg>
