<svg width="19" height="16" viewBox="0 0 19 16" fill="none" xmlns="http://www.w3.org/2000/svg">
<g clip-path="url(#clip0_308_12264)">
<path d="M18.623 8.52122C18.3646 9.27496 17.856 9.88427 17.3537 10.4903C16.0907 12.0155 14.5362 13.1811 12.6193 13.8634C10.3046 14.6868 7.9981 14.6385 5.71009 13.7533C5.6654 13.7357 5.62071 13.7185 5.5765 13.699C5.56678 13.6948 5.56096 13.6823 5.54541 13.6646C5.57456 13.633 5.6037 13.5982 5.63625 13.5675C6.12203 13.1031 6.60781 12.6415 7.08581 12.1743C7.16354 12.0981 7.22086 12.0935 7.3185 12.139C9.98347 13.3822 13.0667 11.9505 13.6919 9.17372C13.9061 8.22306 13.7735 7.30491 13.3276 6.43367C13.2678 6.31571 13.2712 6.24791 13.3723 6.15502C14.0038 5.56104 14.6256 4.95916 15.2508 4.36053C15.2887 4.32384 15.329 4.28947 15.3936 4.23096C15.7574 4.55001 16.129 4.85606 16.4769 5.18579C17.2201 5.89533 17.862 6.69562 18.386 7.56592C18.488 7.7331 18.5453 7.92584 18.623 8.10649V8.52122Z" fill="#5934FE"/>
<path d="M3.15464 12.337C2.77816 11.9975 2.39877 11.6738 2.04172 11.3283C1.33785 10.6384 0.727013 9.8671 0.223456 9.03225C-0.0650956 8.56273 -0.0791833 8.08252 0.21034 7.61207C1.38155 5.71122 2.9307 4.1754 5.00739 3.18016C7.5485 1.96247 10.1566 1.84126 12.8114 2.83C12.9688 2.88851 13.0543 2.86808 13.1675 2.75755C14.0419 1.91138 14.9226 1.07312 15.7989 0.230204C15.9622 0.0727679 16.1482 -0.0210435 16.3819 0.00403483C16.5073 0.0122905 16.6272 0.0561211 16.7264 0.129918C16.8255 0.203716 16.8994 0.304123 16.9386 0.418292C17.0406 0.686259 16.9609 0.919395 16.7545 1.11491L14.5952 3.18388C10.2336 7.36268 5.87111 11.5404 1.50785 15.717C1.39978 15.825 1.26921 15.9102 1.12457 15.9669C0.845252 16.0639 0.537268 15.9399 0.38182 15.7036C0.303356 15.5849 0.268192 15.4447 0.281813 15.3049C0.295434 15.1651 0.357074 15.0336 0.457115 14.9308C0.648512 14.7366 0.849623 14.5513 1.04636 14.3628C1.71058 13.7265 2.37448 13.0903 3.03805 12.4541C3.08031 12.4141 3.12015 12.3719 3.15464 12.337ZM5.34064 10.2509C5.64425 9.95922 5.93086 9.67639 6.22767 9.40424C6.32045 9.31879 6.33211 9.24541 6.29665 9.13117C6.11915 8.56582 6.12729 7.96202 6.31996 7.40123C6.56723 6.65179 7.1118 6.02481 7.83691 5.65471C8.56203 5.28462 9.40996 5.20087 10.1989 5.42143C10.2582 5.43768 10.3543 5.43954 10.3932 5.40564C10.7124 5.11399 11.0223 4.81258 11.338 4.51118C9.99439 3.78437 7.84045 3.78808 6.28596 5.16507C4.68192 6.58246 4.4949 8.73642 5.34112 10.2513L5.34064 10.2509Z" fill="#5934FE"/>
<path d="M12.2631 7.29541C12.6377 8.15876 12.5226 9.48559 11.5437 10.4316C10.6761 11.2675 9.27318 11.5643 8.25305 11.137L12.2631 7.29541Z" fill="#5934FE"/>
</g>
<defs>
<clipPath id="clip0_308_12264">
<rect width="18.6233" height="16" fill="white"/>
</clipPath>
</defs>
</svg>
