<svg width="11" height="11" viewBox="0 0 11 11" fill="none" xmlns="http://www.w3.org/2000/svg">
<path d="M5.79233 8.95576C4.82798 8.95576 3.90313 8.57267 3.22123 7.89077C2.53934 7.20887 2.15625 6.28402 2.15625 5.31967C2.15625 4.35533 2.53934 3.43047 3.22123 2.74858C3.90313 2.06668 4.82798 1.68359 5.79233 1.68359C6.75668 1.68359 7.68153 2.06668 8.36342 2.74858C9.04532 3.43047 9.42841 4.35533 9.42841 5.31967C9.42841 6.28402 9.04532 7.20887 8.36342 7.89077C7.68153 8.57267 6.75668 8.95576 5.79233 8.95576V8.95576Z" stroke="white" stroke-width="0.538678" stroke-linecap="round" stroke-linejoin="round"/>
<path d="M5.79239 5.82328V5.72228C5.79239 5.3922 5.99642 5.21323 6.20085 5.07587C6.40043 4.94133 6.60041 4.76599 6.60041 4.44278C6.60041 4.22848 6.51528 4.02296 6.36375 3.87143C6.21221 3.7199 6.00669 3.63477 5.79239 3.63477C5.57809 3.63477 5.37257 3.7199 5.22104 3.87143C5.06951 4.02296 4.98438 4.22848 4.98438 4.44278" stroke="white" stroke-width="0.538678" stroke-linecap="round" stroke-linejoin="round"/>
<path d="M5.79193 6.93547C5.73618 6.93547 5.69093 6.98072 5.69134 7.03648C5.69134 7.09223 5.73658 7.13748 5.79234 7.13748C5.84809 7.13748 5.89334 7.09223 5.89334 7.03648C5.89334 6.98072 5.84809 6.93547 5.79193 6.93547" stroke="white" stroke-width="0.538678" stroke-linecap="round" stroke-linejoin="round"/>
</svg>
