<svg width="19" height="16" viewBox="0 0 19 16" fill="none" xmlns="http://www.w3.org/2000/svg">
<path d="M0.5 7.37259C0.526114 7.30937 0.549936 7.24478 0.579257 7.18293C0.738688 6.84253 1.00532 6.64782 1.37916 6.60567C1.46677 6.59834 1.55472 6.59605 1.64259 6.5988H13.5111C13.446 6.52963 13.4061 6.48519 13.3635 6.44304C12.1724 5.24823 10.9812 4.0537 9.79008 2.85949C9.41441 2.48245 9.30171 1.98583 9.58804 1.60421C9.85776 1.25149 10.1729 0.936003 10.5254 0.665944C10.8575 0.40893 11.3239 0.482687 11.6487 0.75482C11.6946 0.792387 11.7362 0.832249 11.7779 0.87394C13.8991 2.9945 16.0201 5.11551 18.141 7.23699C18.5272 7.62365 18.6074 8.09279 18.3545 8.51152C18.2947 8.6053 18.224 8.69159 18.1437 8.76854C16.0241 10.8906 13.9032 13.0119 11.7811 15.1325C11.301 15.6122 10.7302 15.6126 10.2496 15.1371C10.0969 14.9844 9.94417 14.8317 9.79146 14.679C9.32599 14.2094 9.32324 13.6431 9.79146 13.1767C10.9936 11.9758 12.1968 10.7761 13.4011 9.57761C13.4469 9.53179 13.4868 9.48597 13.5569 9.41313H1.76812C0.989292 9.41313 0.788167 9.27936 0.5 8.56879V7.37259Z" fill="#5934FE"/>
</svg>
